<svg width="640" height="420" viewBox="0 0 640 420" fill="none" xmlns="http://www.w3.org/2000/svg">
  <rect width="640" height="420" rx="32" fill="#0B1120"/>
  <rect x="24" y="24" width="592" height="372" rx="24" fill="url(#paint0_linear_3_1)"/>
  <circle cx="174" cy="150" r="92" fill="#E2E8F0" fill-opacity="0.88"/>
  <circle cx="174" cy="150" r="42" fill="#0F172A"/>
  <rect x="302" y="92" width="164" height="12" rx="6" fill="white" fill-opacity="0.66"/>
  <rect x="302" y="118" width="206" height="22" rx="11" fill="white"/>
  <rect x="302" y="154" width="170" height="10" rx="5" fill="white" fill-opacity="0.65"/>
  <rect x="302" y="180" width="144" height="10" rx="5" fill="white" fill-opacity="0.44"/>
  <path d="M84 309C136 275 192 258 252 258C312 258 368 275 420 309" stroke="white" stroke-opacity="0.62" stroke-width="8" stroke-linecap="round"/>
  <path d="M108 336C150 309 198 296 252 296C306 296 354 309 396 336" stroke="white" stroke-opacity="0.4" stroke-width="8" stroke-linecap="round"/>
  <defs>
    <linearGradient id="paint0_linear_3_1" x1="52" y1="32" x2="556" y2="396" gradientUnits="userSpaceOnUse">
      <stop stop-color="#0F766E"/>
      <stop offset="0.48" stop-color="#1D4ED8"/>
      <stop offset="1" stop-color="#1E293B"/>
    </linearGradient>
  </defs>
</svg>
